{
    "asset" : {
        "generator" : "Khronos glTF Blender I/O v3.2.43",
        "version" : "2.0"
    },
    "scene" : 0,
    "scenes" : [
        {
            "name" : "Scene",
            "nodes" : [
                0
            ]
        }
    ],
    "nodes" : [
        {
            "mesh" : 0,
            "name" : "lizardon",
            "rotation" : [
                -1,
                0,
                0,
                4.371138828673793e-08
            ],
            "scale" : [
                0.5,
                0.5,
                0.5
            ],
            "translation" : [
                7.4290080070495605,
                0,
                0
            ]
        }
    ],
    "materials" : [
        {
            "doubleSided" : true,
            "name" : "mat_0",
            "pbrMetallicRoughness" : {
                "baseColorFactor" : [
                    0.800000011920929,
                    0.800000011920929,
                    0.800000011920929,
                    1
                ],
                "metallicFactor" : 0,
                "roughnessFactor" : 0.5
            }
        },
        {
            "doubleSided" : true,
            "name" : "mat_1",
            "pbrMetallicRoughness" : {
                "baseColorFactor" : [
                    0.800000011920929,
                    0.800000011920929,
                    0.800000011920929,
                    1
                ],
                "metallicFactor" : 0,
                "roughnessFactor" : 0.5
            }
        }
    ],
    "meshes" : [
        {
            "name" : "lizardon",
            "primitives" : [
                {
                    "attributes" : {
                        "POSITION" : 0,
                        "NORMAL" : 1,
                        "TEXCOORD_0" : 2
                    },
                    "indices" : 3,
                    "material" : 0
                },
                {
                    "attributes" : {
                        "POSITION" : 4,
                        "NORMAL" : 5,
                        "TEXCOORD_0" : 6
                    },
                    "indices" : 7,
                    "material" : 1
                }
            ]
        }
    ],
    "accessors" : [
        {
            "bufferView" : 0,
            "componentType" : 5126,
            "count" : 770,
            "max" : [
                11.8375244140625,
                0.07364600151777267,
                20.086963653564453
            ],
            "min" : [
                -11.8375244140625,
                -16.296470642089844,
                -8.952338218688965
            ],
            "type" : "VEC3"
        },
        {
            "bufferView" : 1,
            "componentType" : 5126,
            "count" : 770,
            "type" : "VEC3"
        },
        {
            "bufferView" : 2,
            "componentType" : 5126,
            "count" : 770,
            "type" : "VEC2"
        },
        {
            "bufferView" : 3,
            "componentType" : 5123,
            "count" : 3402,
            "type" : "SCALAR"
        },
        {
            "bufferView" : 4,
            "componentType" : 5126,
            "count" : 12,
            "max" : [
                1.2030750513076782,
                -12.000190734863281,
                -5.855988025665283
            ],
            "min" : [
                -1.2030750513076782,
                -13.911739349365234,
                -7.731963157653809
            ],
            "type" : "VEC3"
        },
        {
            "bufferView" : 5,
            "componentType" : 5126,
            "count" : 12,
            "type" : "VEC3"
        },
        {
            "bufferView" : 6,
            "componentType" : 5126,
            "count" : 12,
            "type" : "VEC2"
        },
        {
            "bufferView" : 7,
            "componentType" : 5123,
            "count" : 18,
            "type" : "SCALAR"
        }
    ],
    "bufferViews" : [
        {
            "buffer" : 0,
            "byteLength" : 9240,
            "byteOffset" : 0
        },
        {
            "buffer" : 0,
            "byteLength" : 9240,
            "byteOffset" : 9240
        },
        {
            "buffer" : 0,
            "byteLength" : 6160,
            "byteOffset" : 18480
        },
        {
            "buffer" : 0,
            "byteLength" : 6804,
            "byteOffset" : 24640
        },
        {
            "buffer" : 0,
            "byteLength" : 144,
            "byteOffset" : 31444
        },
        {
            "buffer" : 0,
            "byteLength" : 144,
            "byteOffset" : 31588
        },
        {
            "buffer" : 0,
            "byteLength" : 96,
            "byteOffset" : 31732
        },
        {
            "buffer" : 0,
            "byteLength" : 36,
            "byteOffset" : 31828
        }
    ],
    "buffers" : [
        {
            "byteLength" : 31864,
            "uri" : "data:application/octet-stream;base64,"
        }
    ]
}
