{
    "asset" : {
        "generator" : "Khronos glTF Blender I/O v3.2.43",
        "version" : "2.0"
    },
    "scene" : 0,
    "scenes" : [
        {
            "name" : "Scene",
            "nodes" : [
                0
            ]
        }
    ],
    "nodes" : [
        {
            "mesh" : 0,
            "name" : "Umbreon",
            "rotation" : [
                0.7071068286895752,
                0,
                0,
                0.7071067094802856
            ],
            "scale" : [
                0.5,
                0.5,
                0.5
            ]
        }
    ],
    "materials" : [
        {
            "doubleSided" : true,
            "name" : "Umbreon",
            "pbrMetallicRoughness" : {
                "baseColorFactor" : [
                    0.6399999856948853,
                    0.6399999856948853,
                    0.6399999856948853,
                    1
                ],
                "metallicFactor" : 0,
                "roughnessFactor" : 0.690034806728363
            }
        },
        {
            "doubleSided" : true,
            "name" : "UmbreonEye",
            "pbrMetallicRoughness" : {
                "baseColorFactor" : [
                    0.6399999856948853,
                    0.6399999856948853,
                    0.6399999856948853,
                    1
                ],
                "metallicFactor" : 0,
                "roughnessFactor" : 0.690034806728363
            }
        }
    ],
    "meshes" : [
        {
            "name" : "Umbreon",
            "primitives" : [
                {
                    "attributes" : {
                        "POSITION" : 0,
                        "NORMAL" : 1,
                        "TEXCOORD_0" : 2
                    },
                    "indices" : 3,
                    "material" : 0
                },
                {
                    "attributes" : {
                        "POSITION" : 4,
                        "NORMAL" : 5,
                        "TEXCOORD_0" : 6
                    },
                    "indices" : 7,
                    "material" : 1
                }
            ]
        }
    ],
    "accessors" : [
        {
            "bufferView" : 0,
            "componentType" : 5126,
            "count" : 4074,
            "max" : [
                0.980368971824646,
                1.5208410024642944,
                1.3222090005874634
            ],
            "min" : [
                -0.980368971824646,
                -2.6771109104156494,
                -2.1328859329223633
            ],
            "type" : "VEC3"
        },
        {
            "bufferView" : 1,
            "componentType" : 5126,
            "count" : 4074,
            "type" : "VEC3"
        },
        {
            "bufferView" : 2,
            "componentType" : 5126,
            "count" : 4074,
            "type" : "VEC2"
        },
        {
            "bufferView" : 3,
            "componentType" : 5123,
            "count" : 21588,
            "type" : "SCALAR"
        },
        {
            "bufferView" : 4,
            "componentType" : 5126,
            "count" : 162,
            "max" : [
                0.3931179940700531,
                1.4434820413589478,
                -0.8386200070381165
            ],
            "min" : [
                -0.3931179940700531,
                1.2783269882202148,
                -1.029981017112732
            ],
            "type" : "VEC3"
        },
        {
            "bufferView" : 5,
            "componentType" : 5126,
            "count" : 162,
            "type" : "VEC3"
        },
        {
            "bufferView" : 6,
            "componentType" : 5126,
            "count" : 162,
            "type" : "VEC2"
        },
        {
            "bufferView" : 7,
            "componentType" : 5123,
            "count" : 840,
            "type" : "SCALAR"
        }
    ],
    "bufferViews" : [
        {
            "buffer" : 0,
            "byteLength" : 48888,
            "byteOffset" : 0
        },
        {
            "buffer" : 0,
            "byteLength" : 48888,
            "byteOffset" : 48888
        },
        {
            "buffer" : 0,
            "byteLength" : 32592,
            "byteOffset" : 97776
        },
        {
            "buffer" : 0,
            "byteLength" : 43176,
            "byteOffset" : 130368
        },
        {
            "buffer" : 0,
            "byteLength" : 1944,
            "byteOffset" : 173544
        },
        {
            "buffer" : 0,
            "byteLength" : 1944,
            "byteOffset" : 175488
        },
        {
            "buffer" : 0,
            "byteLength" : 1296,
            "byteOffset" : 177432
        },
        {
            "buffer" : 0,
            "byteLength" : 1680,
            "byteOffset" : 178728
        }
    ],
    "buffers" : [
        {
            "byteLength" : 180408,
            "uri" : "data:application/octet-stream;base64,"
        }
    ]
}
